<?xml version="1.0" encoding="UTF-8"?>
<svg width="144px" height="52px" viewBox="0 0 144 52" version="1.1" xmlns="http://www.w3.org/2000/svg" xmlns:xlink="http://www.w3.org/1999/xlink">
    <title>hairdoo-logo</title>
    <g id="Page-1" stroke="none" stroke-width="1" fill="none" fill-rule="evenodd">
        <g id="hairdoo-logo" fill="#000000" fill-rule="nonzero">
            <g id="Group-6">
                <path d="M2.78025,51.1015625 L2.78025,45.8855625 L8.95625,45.8855625 L8.95625,51.1015625 L10.51625,51.1015625 L10.51625,39.6375625 L8.95625,39.6375625 L8.95625,44.7495625 L2.78025,44.7495625 L2.78025,39.6375625 L1.22025,39.6375625 L1.22025,51.1015625 L2.78025,51.1015625 Z M14.92425,51.2295625 C15.2335833,51.2295625 15.5149167,51.2028958 15.76825,51.1495625 C16.0215833,51.0962292 16.26025,51.0175625 16.48425,50.9135625 C16.70825,50.8095625 16.9215833,50.6815625 17.12425,50.5295625 C17.3269167,50.3775625 17.5349167,50.2055625 17.74825,50.0135625 L17.74825,50.0135625 L17.90825,50.7655625 C17.9349167,50.9042292 17.9909167,50.9948958 18.07625,51.0375625 C18.1615833,51.0802292 18.2735833,51.1015625 18.41225,51.1015625 L18.41225,51.1015625 L19.04425,51.1015625 L19.04425,45.9175625 C19.04425,45.4642292 18.9829167,45.0482292 18.86025,44.6695625 C18.7375833,44.2908958 18.55625,43.9682292 18.31625,43.7015625 C18.07625,43.4348958 17.78025,43.2268958 17.42825,43.0775625 C17.07625,42.9282292 16.6735833,42.8535625 16.22025,42.8535625 C15.5909167,42.8535625 15.0175833,42.9602292 14.50025,43.1735625 C13.9829167,43.3868958 13.50025,43.7095625 13.05225,44.1415625 L13.05225,44.1415625 L13.30825,44.5975625 C13.3509167,44.6722292 13.40825,44.7348958 13.48025,44.7855625 C13.55225,44.8362292 13.63625,44.8615625 13.73225,44.8615625 C13.8549167,44.8615625 13.9789167,44.8175625 14.10425,44.7295625 C14.2295833,44.6415625 14.3789167,44.5428958 14.55225,44.4335625 C14.7255833,44.3242292 14.9309167,44.2255625 15.16825,44.1375625 C15.4055833,44.0495625 15.6975833,44.0055625 16.04425,44.0055625 C16.57225,44.0055625 16.9709167,44.1668958 17.24025,44.4895625 C17.5095833,44.8122292 17.64425,45.2882292 17.64425,45.9175625 L17.64425,45.9175625 L17.64425,46.5495625 C16.7269167,46.5708958 15.9509167,46.6548958 15.31625,46.8015625 C14.6815833,46.9482292 14.16825,47.1362292 13.77625,47.3655625 C13.38425,47.5948958 13.10025,47.8575625 12.92425,48.1535625 C12.74825,48.4495625 12.66025,48.7575625 12.66025,49.0775625 C12.66025,49.4455625 12.72025,49.7642292 12.84025,50.0335625 C12.96025,50.3028958 13.1215833,50.5255625 13.32425,50.7015625 C13.5269167,50.8775625 13.7655833,51.0095625 14.04025,51.0975625 C14.3149167,51.1855625 14.6095833,51.2295625 14.92425,51.2295625 Z M15.34825,50.2295625 C15.1615833,50.2295625 14.98825,50.2068958 14.82825,50.1615625 C14.66825,50.1162292 14.5295833,50.0442292 14.41225,49.9455625 C14.2949167,49.8468958 14.2015833,49.7202292 14.13225,49.5655625 C14.0629167,49.4108958 14.02825,49.2268958 14.02825,49.0135625 C14.02825,48.7895625 14.0935833,48.5868958 14.22425,48.4055625 C14.3549167,48.2242292 14.56425,48.0668958 14.85225,47.9335625 C15.14025,47.8002292 15.5135833,47.6922292 15.97225,47.6095625 C16.4309167,47.5268958 16.98825,47.4748958 17.64425,47.4535625 L17.64425,47.4535625 L17.64425,49.1415625 C17.48425,49.3122292 17.32025,49.4642292 17.15225,49.5975625 C16.98425,49.7308958 16.80825,49.8442292 16.62425,49.9375625 C16.44025,50.0308958 16.24425,50.1028958 16.03625,50.1535625 C15.82825,50.2042292 15.5989167,50.2295625 15.34825,50.2295625 Z M22.08425,41.4615625 C22.2229167,41.4615625 22.3535833,41.4348958 22.47625,41.3815625 C22.5989167,41.3282292 22.7069167,41.2548958 22.80025,41.1615625 C22.8935833,41.0682292 22.96825,40.9615625 23.02425,40.8415625 C23.08025,40.7215625 23.10825,40.5922292 23.10825,40.4535625 C23.10825,40.3148958 23.08025,40.1828958 23.02425,40.0575625 C22.96825,39.9322292 22.8935833,39.8228958 22.80025,39.7295625 C22.7069167,39.6362292 22.5989167,39.5628958 22.47625,39.5095625 C22.3535833,39.4562292 22.2229167,39.4295625 22.08425,39.4295625 C21.9455833,39.4295625 21.81625,39.4562292 21.69625,39.5095625 C21.57625,39.5628958 21.4695833,39.6362292 21.37625,39.7295625 C21.2829167,39.8228958 21.2095833,39.9322292 21.15625,40.0575625 C21.1029167,40.1828958 21.07625,40.3148958 21.07625,40.4535625 C21.07625,40.5922292 21.1029167,40.7215625 21.15625,40.8415625 C21.2095833,40.9615625 21.2829167,41.0682292 21.37625,41.1615625 C21.4695833,41.2548958 21.57625,41.3282292 21.69625,41.3815625 C21.81625,41.4348958 21.9455833,41.4615625 22.08425,41.4615625 Z M22.78825,51.1015625 L22.78825,42.9975625 L21.36425,42.9975625 L21.36425,51.1015625 L22.78825,51.1015625 Z M26.72425,51.1015625 L26.72425,45.9415625 C26.94825,45.3922292 27.2269167,44.9735625 27.56025,44.6855625 C27.8935833,44.3975625 28.30825,44.2535625 28.80425,44.2535625 C29.0815833,44.2535625 29.2975833,44.2788958 29.45225,44.3295625 C29.6069167,44.3802292 29.7215833,44.4055625 29.79625,44.4055625 C29.92425,44.4055625 30.0069167,44.3388958 30.04425,44.2055625 L30.04425,44.2055625 L30.22825,43.1415625 C30.0735833,43.0508958 29.9055833,42.9802292 29.72425,42.9295625 C29.5429167,42.8788958 29.34025,42.8535625 29.11625,42.8535625 C28.5669167,42.8535625 28.08825,43.0122292 27.68025,43.3295625 C27.27225,43.6468958 26.9295833,44.0882292 26.65225,44.6535625 L26.65225,44.6535625 L26.55625,43.3895625 C26.5349167,43.2455625 26.4949167,43.1442292 26.43625,43.0855625 C26.3775833,43.0268958 26.2709167,42.9975625 26.11625,42.9975625 L26.11625,42.9975625 L25.30025,42.9975625 L25.30025,51.1015625 L26.72425,51.1015625 Z M34.74825,51.2135625 C35.3349167,51.2135625 35.89225,51.1135625 36.42025,50.9135625 C36.94825,50.7135625 37.38825,50.3975625 37.74025,49.9655625 L37.74025,49.9655625 L37.34025,49.4455625 C37.2815833,49.3548958 37.1909167,49.3095625 37.06825,49.3095625 C36.97225,49.3095625 36.87625,49.3508958 36.78025,49.4335625 C36.68425,49.5162292 36.5615833,49.6082292 36.41225,49.7095625 C36.2629167,49.8108958 36.07625,49.9028958 35.85225,49.9855625 C35.62825,50.0682292 35.3429167,50.1095625 34.99625,50.1095625 C34.6335833,50.1095625 34.3069167,50.0415625 34.01625,49.9055625 C33.7255833,49.7695625 33.4789167,49.5722292 33.27625,49.3135625 C33.0735833,49.0548958 32.91625,48.7348958 32.80425,48.3535625 C32.69225,47.9722292 32.63625,47.5362292 32.63625,47.0455625 C32.63625,46.5762292 32.68825,46.1522292 32.79225,45.7735625 C32.89625,45.3948958 33.0509167,45.0722292 33.25625,44.8055625 C33.4615833,44.5388958 33.71625,44.3348958 34.02025,44.1935625 C34.32425,44.0522292 34.6735833,43.9815625 35.06825,43.9815625 C35.3669167,43.9815625 35.6189167,44.0148958 35.82425,44.0815625 C36.0295833,44.1482292 36.20425,44.2215625 36.34825,44.3015625 C36.49225,44.3815625 36.6109167,44.4548958 36.70425,44.5215625 C36.7975833,44.5882292 36.88425,44.6215625 36.96425,44.6215625 C37.04425,44.6215625 37.1055833,44.6055625 37.14825,44.5735625 C37.1909167,44.5415625 37.2335833,44.4962292 37.27625,44.4375625 L37.27625,44.4375625 L37.65225,43.9255625 C37.31625,43.5895625 36.9295833,43.3295625 36.49225,43.1455625 C36.0549167,42.9615625 35.5535833,42.8695625 34.98825,42.8695625 C34.3749167,42.8695625 33.8309167,42.9735625 33.35625,43.1815625 C32.8815833,43.3895625 32.4829167,43.6788958 32.16025,44.0495625 C31.8375833,44.4202292 31.59225,44.8615625 31.42425,45.3735625 C31.25625,45.8855625 31.17225,46.4428958 31.17225,47.0455625 C31.17225,47.7068958 31.26425,48.2962292 31.44825,48.8135625 C31.63225,49.3308958 31.88425,49.7668958 32.20425,50.1215625 C32.52425,50.4762292 32.9015833,50.7468958 33.33625,50.9335625 C33.7709167,51.1202292 34.2415833,51.2135625 34.74825,51.2135625 Z M41.05225,51.2295625 C41.3615833,51.2295625 41.6429167,51.2028958 41.89625,51.1495625 C42.1495833,51.0962292 42.38825,51.0175625 42.61225,50.9135625 C42.83625,50.8095625 43.0495833,50.6815625 43.25225,50.5295625 C43.4549167,50.3775625 43.6629167,50.2055625 43.87625,50.0135625 L43.87625,50.0135625 L44.03625,50.7655625 C44.0629167,50.9042292 44.1189167,50.9948958 44.20425,51.0375625 C44.2895833,51.0802292 44.4015833,51.1015625 44.54025,51.1015625 L44.54025,51.1015625 L45.17225,51.1015625 L45.17225,45.9175625 C45.17225,45.4642292 45.1109167,45.0482292 44.98825,44.6695625 C44.8655833,44.2908958 44.68425,43.9682292 44.44425,43.7015625 C44.20425,43.4348958 43.90825,43.2268958 43.55625,43.0775625 C43.20425,42.9282292 42.8015833,42.8535625 42.34825,42.8535625 C41.7189167,42.8535625 41.1455833,42.9602292 40.62825,43.1735625 C40.1109167,43.3868958 39.62825,43.7095625 39.18025,44.1415625 L39.18025,44.1415625 L39.43625,44.5975625 C39.4789167,44.6722292 39.53625,44.7348958 39.60825,44.7855625 C39.68025,44.8362292 39.76425,44.8615625 39.86025,44.8615625 C39.9829167,44.8615625 40.1069167,44.8175625 40.23225,44.7295625 C40.3575833,44.6415625 40.5069167,44.5428958 40.68025,44.4335625 C40.8535833,44.3242292 41.0589167,44.2255625 41.29625,44.1375625 C41.5335833,44.0495625 41.8255833,44.0055625 42.17225,44.0055625 C42.70025,44.0055625 43.0989167,44.1668958 43.36825,44.4895625 C43.6375833,44.8122292 43.77225,45.2882292 43.77225,45.9175625 L43.77225,45.9175625 L43.77225,46.5495625 C42.8549167,46.5708958 42.0789167,46.6548958 41.44425,46.8015625 C40.8095833,46.9482292 40.29625,47.1362292 39.90425,47.3655625 C39.51225,47.5948958 39.22825,47.8575625 39.05225,48.1535625 C38.87625,48.4495625 38.78825,48.7575625 38.78825,49.0775625 C38.78825,49.4455625 38.84825,49.7642292 38.96825,50.0335625 C39.08825,50.3028958 39.2495833,50.5255625 39.45225,50.7015625 C39.6549167,50.8775625 39.8935833,51.0095625 40.16825,51.0975625 C40.4429167,51.1855625 40.7375833,51.2295625 41.05225,51.2295625 Z M41.47625,50.2295625 C41.2895833,50.2295625 41.11625,50.2068958 40.95625,50.1615625 C40.79625,50.1162292 40.6575833,50.0442292 40.54025,49.9455625 C40.4229167,49.8468958 40.3295833,49.7202292 40.26025,49.5655625 C40.1909167,49.4108958 40.15625,49.2268958 40.15625,49.0135625 C40.15625,48.7895625 40.2215833,48.5868958 40.35225,48.4055625 C40.4829167,48.2242292 40.69225,48.0668958 40.98025,47.9335625 C41.26825,47.8002292 41.6415833,47.6922292 42.10025,47.6095625 C42.5589167,47.5268958 43.11625,47.4748958 43.77225,47.4535625 L43.77225,47.4535625 L43.77225,49.1415625 C43.61225,49.3122292 43.44825,49.4642292 43.28025,49.5975625 C43.11225,49.7308958 42.93625,49.8442292 42.75225,49.9375625 C42.56825,50.0308958 42.37225,50.1028958 42.16425,50.1535625 C41.95625,50.2042292 41.7269167,50.2295625 41.47625,50.2295625 Z M48.75625,51.1015625 L48.75625,45.9415625 C48.98025,45.3922292 49.2589167,44.9735625 49.59225,44.6855625 C49.9255833,44.3975625 50.34025,44.2535625 50.83625,44.2535625 C51.1135833,44.2535625 51.3295833,44.2788958 51.48425,44.3295625 C51.6389167,44.3802292 51.7535833,44.4055625 51.82825,44.4055625 C51.95625,44.4055625 52.0389167,44.3388958 52.07625,44.2055625 L52.07625,44.2055625 L52.26025,43.1415625 C52.1055833,43.0508958 51.9375833,42.9802292 51.75625,42.9295625 C51.5749167,42.8788958 51.37225,42.8535625 51.14825,42.8535625 C50.5989167,42.8535625 50.12025,43.0122292 49.71225,43.3295625 C49.30425,43.6468958 48.9615833,44.0882292 48.68425,44.6535625 L48.68425,44.6535625 L48.58825,43.3895625 C48.5669167,43.2455625 48.5269167,43.1442292 48.46825,43.0855625 C48.4095833,43.0268958 48.3029167,42.9975625 48.14825,42.9975625 L48.14825,42.9975625 L47.33225,42.9975625 L47.33225,51.1015625 L48.75625,51.1015625 Z M57.06825,51.2135625 C57.3615833,51.2135625 57.6575833,51.1882292 57.95625,51.1375625 C58.2549167,51.0868958 58.54425,51.0108958 58.82425,50.9095625 C59.10425,50.8082292 59.3669167,50.6788958 59.61225,50.5215625 C59.8575833,50.3642292 60.06825,50.1788958 60.24425,49.9655625 L60.24425,49.9655625 L59.84425,49.4455625 C59.78025,49.3548958 59.6895833,49.3095625 59.57225,49.3095625 C59.4815833,49.3095625 59.3735833,49.3508958 59.24825,49.4335625 C59.1229167,49.5162292 58.9669167,49.6055625 58.78025,49.7015625 C58.5935833,49.7975625 58.3709167,49.8868958 58.11225,49.9695625 C57.8535833,50.0522292 57.5455833,50.0935625 57.18825,50.0935625 C56.80425,50.0935625 56.4575833,50.0308958 56.14825,49.9055625 C55.8389167,49.7802292 55.57225,49.5908958 55.34825,49.3375625 C55.12425,49.0842292 54.94825,48.7682292 54.82025,48.3895625 C54.69225,48.0108958 54.6229167,47.5655625 54.61225,47.0535625 L54.61225,47.0535625 L60.00425,47.0535625 C60.1375833,47.0535625 60.22825,47.0162292 60.27625,46.9415625 C60.32425,46.8668958 60.34825,46.7175625 60.34825,46.4935625 C60.34825,45.9175625 60.26425,45.4042292 60.09625,44.9535625 C59.92825,44.5028958 59.6949167,44.1242292 59.39625,43.8175625 C59.0975833,43.5108958 58.7429167,43.2762292 58.33225,43.1135625 C57.9215833,42.9508958 57.4735833,42.8695625 56.98825,42.8695625 C56.4015833,42.8695625 55.8735833,42.9722292 55.40425,43.1775625 C54.9349167,43.3828958 54.5375833,43.6655625 54.21225,44.0255625 C53.8869167,44.3855625 53.6375833,44.8108958 53.46425,45.3015625 C53.2909167,45.7922292 53.20425,46.3202292 53.20425,46.8855625 C53.20425,47.5842292 53.30025,48.2028958 53.49225,48.7415625 C53.68425,49.2802292 53.95225,49.7322292 54.29625,50.0975625 C54.64025,50.4628958 55.04825,50.7402292 55.52025,50.9295625 C55.99225,51.1188958 56.50825,51.2135625 57.06825,51.2135625 Z M59.06825,46.1655625 L54.66025,46.1655625 C54.75625,45.4615625 55.0015833,44.9108958 55.39625,44.5135625 C55.7909167,44.1162292 56.33225,43.9175625 57.02025,43.9175625 C57.3455833,43.9175625 57.6349167,43.9722292 57.88825,44.0815625 C58.1415833,44.1908958 58.35625,44.3455625 58.53225,44.5455625 C58.70825,44.7455625 58.8415833,44.9828958 58.93225,45.2575625 C59.0229167,45.5322292 59.06825,45.8348958 59.06825,46.1655625 L59.06825,46.1655625 Z M68.53225,51.2135625 C69.12425,51.2135625 69.6589167,51.1162292 70.13625,50.9215625 C70.6135833,50.7268958 71.0189167,50.4482292 71.35225,50.0855625 C71.6855833,49.7228958 71.9415833,49.2855625 72.12025,48.7735625 C72.2989167,48.2615625 72.38825,47.6855625 72.38825,47.0455625 C72.38825,46.4108958 72.2989167,45.8362292 72.12025,45.3215625 C71.9415833,44.8068958 71.6855833,44.3682292 71.35225,44.0055625 C71.0189167,43.6428958 70.6135833,43.3628958 70.13625,43.1655625 C69.6589167,42.9682292 69.12425,42.8695625 68.53225,42.8695625 C67.94025,42.8695625 67.4055833,42.9682292 66.92825,43.1655625 C66.4509167,43.3628958 66.04425,43.6428958 65.70825,44.0055625 C65.37225,44.3682292 65.1135833,44.8068958 64.93225,45.3215625 C64.7509167,45.8362292 64.66025,46.4108958 64.66025,47.0455625 C64.66025,47.6855625 64.7509167,48.2615625 64.93225,48.7735625 C65.1135833,49.2855625 65.37225,49.7228958 65.70825,50.0855625 C66.04425,50.4482292 66.4509167,50.7268958 66.92825,50.9215625 C67.4055833,51.1162292 67.94025,51.2135625 68.53225,51.2135625 Z M68.53225,50.1015625 C68.1269167,50.1015625 67.7749167,50.0322292 67.47625,49.8935625 C67.1775833,49.7548958 66.92825,49.5562292 66.72825,49.2975625 C66.52825,49.0388958 66.3789167,48.7202292 66.28025,48.3415625 C66.1815833,47.9628958 66.13225,47.5335625 66.13225,47.0535625 C66.13225,46.5735625 66.1815833,46.1428958 66.28025,45.7615625 C66.3789167,45.3802292 66.52825,45.0588958 66.72825,44.7975625 C66.92825,44.5362292 67.1775833,44.3362292 67.47625,44.1975625 C67.7749167,44.0588958 68.1269167,43.9895625 68.53225,43.9895625 C69.33225,43.9895625 69.9295833,44.2588958 70.32425,44.7975625 C70.7189167,45.3362292 70.91625,46.0882292 70.91625,47.0535625 C70.91625,48.0135625 70.7189167,48.7615625 70.32425,49.2975625 C69.9295833,49.8335625 69.33225,50.1015625 68.53225,50.1015625 Z M75.57225,51.1015625 L75.57225,45.1335625 C75.8815833,44.7868958 76.2189167,44.5122292 76.58425,44.3095625 C76.9495833,44.1068958 77.3429167,44.0055625 77.76425,44.0055625 C78.34025,44.0055625 78.76825,44.1748958 79.04825,44.5135625 C79.32825,44.8522292 79.46825,45.3282292 79.46825,45.9415625 L79.46825,45.9415625 L79.46825,51.1015625 L80.89225,51.1015625 L80.89225,45.9415625 C80.89225,45.4828958 80.8335833,45.0642292 80.71625,44.6855625 C80.5989167,44.3068958 80.4269167,43.9828958 80.20025,43.7135625 C79.9735833,43.4442292 79.6909167,43.2362292 79.35225,43.0895625 C79.0135833,42.9428958 78.6229167,42.8695625 78.18025,42.8695625 C77.6095833,42.8695625 77.1069167,42.9895625 76.67225,43.2295625 C76.2375833,43.4695625 75.84425,43.7842292 75.49225,44.1735625 L75.49225,44.1735625 L75.38025,43.2935625 C75.3269167,43.0962292 75.1989167,42.9975625 74.99625,42.9975625 L74.99625,42.9975625 L74.14825,42.9975625 L74.14825,51.1015625 L75.57225,51.1015625 Z M90.64425,51.1015625 C91.4869167,51.1015625 92.2549167,50.9642292 92.94825,50.6895625 C93.6415833,50.4148958 94.23625,50.0268958 94.73225,49.5255625 C95.22825,49.0242292 95.61225,48.4215625 95.88425,47.7175625 C96.15625,47.0135625 96.29225,46.2322292 96.29225,45.3735625 C96.29225,44.5148958 96.15625,43.7335625 95.88425,43.0295625 C95.61225,42.3255625 95.22825,41.7215625 94.73225,41.2175625 C94.23625,40.7135625 93.6415833,40.3242292 92.94825,40.0495625 C92.2549167,39.7748958 91.4869167,39.6375625 90.64425,39.6375625 L90.64425,39.6375625 L86.35625,39.6375625 L86.35625,51.1015625 L90.64425,51.1015625 Z M90.64425,49.8455625 L87.91625,49.8455625 L87.91625,40.8935625 L90.64425,40.8935625 C91.2575833,40.8935625 91.8149167,40.9948958 92.31625,41.1975625 C92.8175833,41.4002292 93.24425,41.6935625 93.59625,42.0775625 C93.94825,42.4615625 94.22025,42.9308958 94.41225,43.4855625 C94.60425,44.0402292 94.70025,44.6695625 94.70025,45.3735625 C94.70025,46.0775625 94.60425,46.7068958 94.41225,47.2615625 C94.22025,47.8162292 93.94825,48.2842292 93.59625,48.6655625 C93.24425,49.0468958 92.8175833,49.3388958 92.31625,49.5415625 C91.8149167,49.7442292 91.2575833,49.8455625 90.64425,49.8455625 L90.64425,49.8455625 Z M101.46825,51.2135625 C101.761583,51.2135625 102.057583,51.1882292 102.35625,51.1375625 C102.654917,51.0868958 102.94425,51.0108958 103.22425,50.9095625 C103.50425,50.8082292 103.766917,50.6788958 104.01225,50.5215625 C104.257583,50.3642292 104.46825,50.1788958 104.64425,49.9655625 L104.64425,49.9655625 L104.24425,49.4455625 C104.18025,49.3548958 104.089583,49.3095625 103.97225,49.3095625 C103.881583,49.3095625 103.773583,49.3508958 103.64825,49.4335625 C103.522917,49.5162292 103.366917,49.6055625 103.18025,49.7015625 C102.993583,49.7975625 102.770917,49.8868958 102.51225,49.9695625 C102.253583,50.0522292 101.945583,50.0935625 101.58825,50.0935625 C101.20425,50.0935625 100.857583,50.0308958 100.54825,49.9055625 C100.238917,49.7802292 99.97225,49.5908958 99.74825,49.3375625 C99.52425,49.0842292 99.34825,48.7682292 99.22025,48.3895625 C99.09225,48.0108958 99.0229167,47.5655625 99.01225,47.0535625 L99.01225,47.0535625 L104.40425,47.0535625 C104.537583,47.0535625 104.62825,47.0162292 104.67625,46.9415625 C104.72425,46.8668958 104.74825,46.7175625 104.74825,46.4935625 C104.74825,45.9175625 104.66425,45.4042292 104.49625,44.9535625 C104.32825,44.5028958 104.094917,44.1242292 103.79625,43.8175625 C103.497583,43.5108958 103.142917,43.2762292 102.73225,43.1135625 C102.321583,42.9508958 101.873583,42.8695625 101.38825,42.8695625 C100.801583,42.8695625 100.273583,42.9722292 99.80425,43.1775625 C99.3349167,43.3828958 98.9375833,43.6655625 98.61225,44.0255625 C98.2869167,44.3855625 98.0375833,44.8108958 97.86425,45.3015625 C97.6909167,45.7922292 97.60425,46.3202292 97.60425,46.8855625 C97.60425,47.5842292 97.70025,48.2028958 97.89225,48.7415625 C98.08425,49.2802292 98.35225,49.7322292 98.69625,50.0975625 C99.04025,50.4628958 99.44825,50.7402292 99.92025,50.9295625 C100.39225,51.1188958 100.90825,51.2135625 101.46825,51.2135625 Z M103.46825,46.1655625 L99.06025,46.1655625 C99.15625,45.4615625 99.4015833,44.9108958 99.79625,44.5135625 C100.190917,44.1162292 100.73225,43.9175625 101.42025,43.9175625 C101.745583,43.9175625 102.034917,43.9722292 102.28825,44.0815625 C102.541583,44.1908958 102.75625,44.3455625 102.93225,44.5455625 C103.10825,44.7455625 103.241583,44.9828958 103.33225,45.2575625 C103.422917,45.5322292 103.46825,45.8348958 103.46825,46.1655625 L103.46825,46.1655625 Z M107.98825,51.1015625 L107.98825,45.0615625 C108.238917,44.7362292 108.514917,44.4788958 108.81625,44.2895625 C109.117583,44.1002292 109.44425,44.0055625 109.79625,44.0055625 C110.297583,44.0055625 110.678917,44.1655625 110.94025,44.4855625 C111.201583,44.8055625 111.33225,45.2908958 111.33225,45.9415625 L111.33225,45.9415625 L111.33225,51.1015625 L112.75625,51.1015625 L112.75625,45.9415625 C112.75625,45.6215625 112.802917,45.3402292 112.89625,45.0975625 C112.989583,44.8548958 113.11625,44.6535625 113.27625,44.4935625 C113.43625,44.3335625 113.621583,44.2122292 113.83225,44.1295625 C114.042917,44.0468958 114.265583,44.0055625 114.50025,44.0055625 C115.02825,44.0055625 115.430917,44.1695625 115.70825,44.4975625 C115.985583,44.8255625 116.12425,45.3068958 116.12425,45.9415625 L116.12425,45.9415625 L116.12425,51.1015625 L117.54825,51.1015625 L117.54825,45.9415625 C117.54825,45.4508958 117.486917,45.0148958 117.36425,44.6335625 C117.241583,44.2522292 117.06425,43.9308958 116.83225,43.6695625 C116.60025,43.4082292 116.317583,43.2095625 115.98425,43.0735625 C115.650917,42.9375625 115.270917,42.8695625 114.84425,42.8695625 C114.577583,42.8695625 114.314917,42.9015625 114.05625,42.9655625 C113.797583,43.0295625 113.553583,43.1308958 113.32425,43.2695625 C113.094917,43.4082292 112.88825,43.5842292 112.70425,43.7975625 C112.52025,44.0108958 112.37225,44.2642292 112.26025,44.5575625 C112.110917,44.0402292 111.866917,43.6295625 111.52825,43.3255625 C111.189583,43.0215625 110.745583,42.8695625 110.19625,42.8695625 C109.705583,42.8695625 109.274917,42.9868958 108.90425,43.2215625 C108.533583,43.4562292 108.198917,43.7575625 107.90025,44.1255625 L107.90025,44.1255625 L107.79625,43.2935625 C107.742917,43.0962292 107.614917,42.9975625 107.41225,42.9975625 L107.41225,42.9975625 L106.56425,42.9975625 L106.56425,51.1015625 L107.98825,51.1015625 Z M121.53225,51.2295625 C121.841583,51.2295625 122.122917,51.2028958 122.37625,51.1495625 C122.629583,51.0962292 122.86825,51.0175625 123.09225,50.9135625 C123.31625,50.8095625 123.529583,50.6815625 123.73225,50.5295625 C123.934917,50.3775625 124.142917,50.2055625 124.35625,50.0135625 L124.35625,50.0135625 L124.51625,50.7655625 C124.542917,50.9042292 124.598917,50.9948958 124.68425,51.0375625 C124.769583,51.0802292 124.881583,51.1015625 125.02025,51.1015625 L125.02025,51.1015625 L125.65225,51.1015625 L125.65225,45.9175625 C125.65225,45.4642292 125.590917,45.0482292 125.46825,44.6695625 C125.345583,44.2908958 125.16425,43.9682292 124.92425,43.7015625 C124.68425,43.4348958 124.38825,43.2268958 124.03625,43.0775625 C123.68425,42.9282292 123.281583,42.8535625 122.82825,42.8535625 C122.198917,42.8535625 121.625583,42.9602292 121.10825,43.1735625 C120.590917,43.3868958 120.10825,43.7095625 119.66025,44.1415625 L119.66025,44.1415625 L119.91625,44.5975625 C119.958917,44.6722292 120.01625,44.7348958 120.08825,44.7855625 C120.16025,44.8362292 120.24425,44.8615625 120.34025,44.8615625 C120.462917,44.8615625 120.586917,44.8175625 120.71225,44.7295625 C120.837583,44.6415625 120.986917,44.5428958 121.16025,44.4335625 C121.333583,44.3242292 121.538917,44.2255625 121.77625,44.1375625 C122.013583,44.0495625 122.305583,44.0055625 122.65225,44.0055625 C123.18025,44.0055625 123.578917,44.1668958 123.84825,44.4895625 C124.117583,44.8122292 124.25225,45.2882292 124.25225,45.9175625 L124.25225,45.9175625 L124.25225,46.5495625 C123.334917,46.5708958 122.558917,46.6548958 121.92425,46.8015625 C121.289583,46.9482292 120.77625,47.1362292 120.38425,47.3655625 C119.99225,47.5948958 119.70825,47.8575625 119.53225,48.1535625 C119.35625,48.4495625 119.26825,48.7575625 119.26825,49.0775625 C119.26825,49.4455625 119.32825,49.7642292 119.44825,50.0335625 C119.56825,50.3028958 119.729583,50.5255625 119.93225,50.7015625 C120.134917,50.8775625 120.373583,51.0095625 120.64825,51.0975625 C120.922917,51.1855625 121.217583,51.2295625 121.53225,51.2295625 Z M121.95625,50.2295625 C121.769583,50.2295625 121.59625,50.2068958 121.43625,50.1615625 C121.27625,50.1162292 121.137583,50.0442292 121.02025,49.9455625 C120.902917,49.8468958 120.809583,49.7202292 120.74025,49.5655625 C120.670917,49.4108958 120.63625,49.2268958 120.63625,49.0135625 C120.63625,48.7895625 120.701583,48.5868958 120.83225,48.4055625 C120.962917,48.2242292 121.17225,48.0668958 121.46025,47.9335625 C121.74825,47.8002292 122.121583,47.6922292 122.58025,47.6095625 C123.038917,47.5268958 123.59625,47.4748958 124.25225,47.4535625 L124.25225,47.4535625 L124.25225,49.1415625 C124.09225,49.3122292 123.92825,49.4642292 123.76025,49.5975625 C123.59225,49.7308958 123.41625,49.8442292 123.23225,49.9375625 C123.04825,50.0308958 122.85225,50.1028958 122.64425,50.1535625 C122.43625,50.2042292 122.206917,50.2295625 121.95625,50.2295625 Z M129.23625,51.1015625 L129.23625,45.1335625 C129.545583,44.7868958 129.882917,44.5122292 130.24825,44.3095625 C130.613583,44.1068958 131.006917,44.0055625 131.42825,44.0055625 C132.00425,44.0055625 132.43225,44.1748958 132.71225,44.5135625 C132.99225,44.8522292 133.13225,45.3282292 133.13225,45.9415625 L133.13225,45.9415625 L133.13225,51.1015625 L134.55625,51.1015625 L134.55625,45.9415625 C134.55625,45.4828958 134.497583,45.0642292 134.38025,44.6855625 C134.262917,44.3068958 134.090917,43.9828958 133.86425,43.7135625 C133.637583,43.4442292 133.354917,43.2362292 133.01625,43.0895625 C132.677583,42.9428958 132.286917,42.8695625 131.84425,42.8695625 C131.273583,42.8695625 130.770917,42.9895625 130.33625,43.2295625 C129.901583,43.4695625 129.50825,43.7842292 129.15625,44.1735625 L129.15625,44.1735625 L129.04425,43.2935625 C128.990917,43.0962292 128.862917,42.9975625 128.66025,42.9975625 L128.66025,42.9975625 L127.81225,42.9975625 L127.81225,51.1015625 L129.23625,51.1015625 Z M139.18025,51.2135625 C139.75625,51.2135625 140.266917,51.0868958 140.71225,50.8335625 C141.157583,50.5802292 141.553583,50.2428958 141.90025,49.8215625 L141.90025,49.8215625 L142.02825,50.8055625 C142.081583,51.0028958 142.209583,51.1015625 142.41225,51.1015625 L142.41225,51.1015625 L143.26025,51.1015625 L143.26025,39.3175625 L141.83625,39.3175625 L141.83625,43.8135625 C141.558917,43.5095625 141.24425,43.2735625 140.89225,43.1055625 C140.54025,42.9375625 140.11625,42.8535625 139.62025,42.8535625 C139.070917,42.8535625 138.58025,42.9615625 138.14825,43.1775625 C137.71625,43.3935625 137.349583,43.6908958 137.04825,44.0695625 C136.746917,44.4482292 136.51625,44.8948958 136.35625,45.4095625 C136.19625,45.9242292 136.11625,46.4802292 136.11625,47.0775625 C136.11625,47.7495625 136.18825,48.3442292 136.33225,48.8615625 C136.47625,49.3788958 136.681583,49.8108958 136.94825,50.1575625 C137.214917,50.5042292 137.537583,50.7668958 137.91625,50.9455625 C138.294917,51.1242292 138.71625,51.2135625 139.18025,51.2135625 Z M139.65225,50.0615625 C139.321583,50.0615625 139.02825,50.0055625 138.77225,49.8935625 C138.51625,49.7815625 138.30025,49.6042292 138.12425,49.3615625 C137.94825,49.1188958 137.814917,48.8095625 137.72425,48.4335625 C137.633583,48.0575625 137.58825,47.6055625 137.58825,47.0775625 C137.58825,46.0802292 137.790917,45.3122292 138.19625,44.7735625 C138.601583,44.2348958 139.182917,43.9655625 139.94025,43.9655625 C140.318917,43.9655625 140.66425,44.0362292 140.97625,44.1775625 C141.28825,44.3188958 141.574917,44.5655625 141.83625,44.9175625 L141.83625,44.9175625 L141.83625,48.8375625 C141.542917,49.2268958 141.221583,49.5282292 140.87225,49.7415625 C140.522917,49.9548958 140.11625,50.0615625 139.65225,50.0615625 Z" id="HaircareonDemand"></path>
                <path d="M9.984375,31.1015625 L9.984375,29.625 C7.89154412,29.3292739 7.58712019,29.0556269 7.57102331,26.6610877 L7.5703125,15.703125 C8.625,14.53125 10.078125,14.015625 11.4140625,14.015625 C13.6640625,14.015625 15.0234375,15.3984375 15.0234375,18.9140625 L15.0234375,26.4375 C15.0234375,29.0390625 14.7890625,29.3203125 12.515625,29.625 L12.515625,31.1015625 L22.453125,31.1015625 L22.453125,29.625 C20.0625,29.2734375 19.7109375,29.1328125 19.7109375,26.390625 L19.7109375,18.328125 C19.7109375,13.3828125 17.4140625,10.8984375 13.6640625,10.8984375 C11.3671875,10.8984375 9.0703125,12.375 7.5703125,13.875 L7.5703125,0 C5.2734375,0.6328125 2.4375,1.1953125 0.1875,1.5234375 L0.1875,2.9765625 C2.65213816,3.20476974 2.87253831,3.25521555 2.8824315,5.74578778 L2.8828125,26.390625 C2.8828125,29.1328125 2.53125,29.3203125 0,29.625 L0,31.1015625 L9.984375,31.1015625 Z M39.0703125,31.640625 L43.4765625,29.2265625 L43.0078125,27.75 C42.5625,27.9375 42,28.171875 41.4140625,28.171875 C40.734375,28.171875 40.03125,27.5390625 40.03125,25.4765625 L40.03125,17.765625 C40.03125,15.4453125 39.5859375,13.640625 37.8515625,12.234375 C36.75,11.3203125 35.4140625,10.8984375 33.7265625,10.8984375 C31.1484375,11.4140625 28.171875,13.0546875 26.71875,14.0625 C25.7578125,14.7890625 25.2421875,15.3046875 25.2421875,16.03125 C25.2421875,17.2265625 26.671875,18.1875 27.6796875,18.1875 C28.453125,18.1875 29.0390625,17.859375 29.3203125,16.8984375 C29.6484375,15.5859375 30.09375,14.53125 30.5625,13.921875 C31.0546875,13.3828125 31.5703125,13.1015625 32.296875,13.1015625 C34.21875,13.1015625 35.4140625,14.7890625 35.4140625,17.625 L35.4140625,18.5625 C34.40625,19.4765625 30.9609375,20.6953125 28.40625,21.5390625 C26.0625,22.453125 24.9140625,23.71875 24.9140625,26.015625 C24.9140625,28.8515625 27.2109375,31.640625 30.65625,31.640625 C31.7578125,31.640625 33.8203125,30.140625 35.5546875,28.9921875 C35.7890625,29.5546875 36.09375,30.1875 36.703125,30.7734375 C37.2421875,31.2421875 38.109375,31.640625 39.0703125,31.640625 Z M32.765625,28.40625 C31.5703125,28.40625 29.90625,27.4453125 29.90625,25.1484375 C29.90625,23.625 30.703125,22.8046875 32.203125,22.078125 C33.1171875,21.5859375 34.5,20.8828125 35.4609375,20.4375 L35.4140625,27.3046875 C34.640625,27.9375 33.6796875,28.40625 32.765625,28.40625 Z M49.9453125,7.875 C51.5859375,7.875 52.78125,6.5625 52.78125,5.0859375 C52.78125,3.4453125 51.5859375,2.203125 49.9921875,2.203125 C48.46875,2.203125 47.1328125,3.4453125 47.1328125,5.0859375 C47.1328125,6.5625 48.46875,7.875 49.9453125,7.875 Z M55.6171875,31.1015625 L55.6171875,29.625 C52.9435547,29.2822266 52.6539111,29.0508545 52.6411,26.2806453 L52.640625,10.8515625 C50.4375,11.625 47.8828125,12.1875 45.3046875,12.515625 L45.3046875,13.921875 C47.6953125,14.296875 47.9296875,14.390625 47.9296875,17.2265625 L47.9296875,26.0625 C47.9296875,29.0859375 47.6015625,29.2734375 45,29.625 L45,31.1015625 L55.6171875,31.1015625 Z M68.9296875,31.1015625 L68.9296875,29.625 C65.5397727,29.3272372 65.2836551,29.0966272 65.2737644,26.5268615 L65.2734375,18.28125 C66.09375,16.125 67.1953125,15.3046875 68.203125,15.3046875 C68.9765625,15.3046875 69.4921875,15.5859375 70.171875,16.171875 C70.453125,16.453125 70.8515625,16.6171875 71.4140625,16.359375 C72.46875,15.9375 73.2890625,14.8359375 73.2890625,13.5234375 C73.2890625,12.1875 72.140625,10.8984375 70.5,10.8984375 C68.671875,10.8984375 66.9140625,12.9609375 65.3671875,15.5390625 L65.2734375,15.5390625 L65.2734375,10.8515625 C62.9296875,11.71875 60.5625,12.234375 58.03125,12.5625 L58.03125,13.921875 C60.28125,14.296875 60.5625,14.484375 60.5625,17.0390625 L60.5625,26.390625 C60.5625,29.0859375 60.234375,29.3203125 57.6328125,29.625 L57.6328125,31.1015625 L68.9296875,31.1015625 Z M89.1328125,31.640625 C92.203125,30.6796875 95.9296875,30.140625 96.984375,29.953125 L96.984375,28.40625 L95.7890625,28.359375 C94.1015625,28.171875 93.8671875,27.9375 93.8671875,25.640625 L93.8671875,0 C91.8984375,0.6328125 88.640625,1.1953125 85.9921875,1.5234375 L85.9921875,2.9765625 C88.8010817,3.25060096 89.1178655,3.39113351 89.1322641,5.76132897 L89.1328125,11.2734375 C88.171875,11.0390625 87.3046875,10.8984375 86.859375,10.8984375 C80.4375,10.8984375 75.09375,15.84375 75.09375,21.9375 C75.09375,28.40625 80.0859375,31.640625 83.6953125,31.640625 C84.234375,31.640625 85.1484375,31.4296875 86.390625,30.6796875 L89.1328125,28.9921875 L89.1328125,31.640625 Z M85.8984375,28.40625 C83.6015625,28.40625 80.4375,26.0625 80.4375,20.7421875 C80.4375,14.203125 83.9765625,12.9140625 85.4296875,12.9140625 C86.859375,12.9140625 88.265625,13.640625 89.1328125,15.1171875 L89.1328125,27.3046875 C88.1015625,27.984375 87.046875,28.40625 85.8984375,28.40625 Z M108.960938,31.640625 C113.695312,31.640625 118.78125,28.125 118.78125,20.9296875 C118.78125,15.4453125 114.84375,10.8984375 109.054688,10.8984375 L109.007812,10.8984375 C104.53125,10.8984375 98.90625,14.34375 98.90625,21.75 C98.90625,26.6484375 102.421875,31.640625 108.960938,31.640625 Z M109.382812,29.859375 C106.265625,29.859375 104.25,25.6875 104.25,20.203125 C104.25,15.2109375 106.3125,12.6796875 108.421875,12.6796875 L108.46875,12.6796875 C111.679688,12.6796875 113.414062,16.453125 113.414062,22.078125 C113.414062,28.265625 111.492188,29.859375 109.382812,29.859375 Z M131.765625,31.640625 C136.5,31.640625 141.585938,28.125 141.585938,20.9296875 C141.585938,15.4453125 137.648438,10.8984375 131.859375,10.8984375 L131.8125,10.8984375 C127.335938,10.8984375 121.710938,14.34375 121.710938,21.75 C121.710938,26.6484375 125.226562,31.640625 131.765625,31.640625 Z M132.1875,29.859375 C129.070312,29.859375 127.054688,25.6875 127.054688,20.203125 C127.054688,15.2109375 129.117188,12.6796875 131.226562,12.6796875 L131.273438,12.6796875 C134.484375,12.6796875 136.21875,16.453125 136.21875,22.078125 C136.21875,28.265625 134.296875,29.859375 132.1875,29.859375 Z" id="hairdoo"></path>
            </g>
        </g>
    </g>
</svg>