<?xml version="1.0" encoding="UTF-8"?>
<svg width="95px" height="22px" viewBox="0 0 95 22" version="1.1" xmlns="http://www.w3.org/2000/svg" xmlns:xlink="http://www.w3.org/1999/xlink">
    <title>logo</title>
    <g id="Page-1" stroke="none" stroke-width="1" fill="none" fill-rule="evenodd">
        <path d="M6.65625,20.734375 L6.65625,19.75 C5.21875,19.546875 5.046875,19.359375 5.046875,17.625 L5.046875,10.46875 C5.75,9.6875 6.71875,9.34375 7.609375,9.34375 C9.109375,9.34375 10.015625,10.265625 10.015625,12.609375 L10.015625,17.625 C10.015625,19.359375 9.859375,19.546875 8.34375,19.75 L8.34375,20.734375 L14.96875,20.734375 L14.96875,19.75 C13.375,19.515625 13.140625,19.421875 13.140625,17.59375 L13.140625,12.21875 C13.140625,8.921875 11.609375,7.265625 9.109375,7.265625 C7.578125,7.265625 6.046875,8.25 5.046875,9.25 L5.046875,0 C3.515625,0.421875 1.625,0.796875 0.125,1.015625 L0.125,1.984375 C1.8125,2.140625 1.921875,2.171875 1.921875,3.96875 L1.921875,17.59375 C1.921875,19.421875 1.6875,19.546875 0,19.75 L0,20.734375 L6.65625,20.734375 Z M26.046875,21.09375 L28.984375,19.484375 L28.671875,18.5 C28.375,18.625 28,18.78125 27.609375,18.78125 C27.15625,18.78125 26.6875,18.359375 26.6875,16.984375 L26.6875,11.84375 C26.6875,10.296875 26.390625,9.09375 25.234375,8.15625 C24.5,7.546875 23.609375,7.265625 22.484375,7.265625 C20.765625,7.609375 18.78125,8.703125 17.8125,9.375 C17.171875,9.859375 16.828125,10.203125 16.828125,10.6875 C16.828125,11.484375 17.78125,12.125 18.453125,12.125 C18.96875,12.125 19.359375,11.90625 19.546875,11.265625 C19.765625,10.390625 20.0625,9.6875 20.375,9.28125 C20.703125,8.921875 21.046875,8.734375 21.53125,8.734375 C22.8125,8.734375 23.609375,9.859375 23.609375,11.75 L23.609375,12.375 C22.9375,12.984375 20.640625,13.796875 18.9375,14.359375 C17.375,14.96875 16.609375,15.8125 16.609375,17.34375 C16.609375,19.234375 18.140625,21.09375 20.4375,21.09375 C21.171875,21.09375 22.546875,20.09375 23.703125,19.328125 C23.859375,19.703125 24.0625,20.125 24.46875,20.515625 C24.828125,20.828125 25.40625,21.09375 26.046875,21.09375 Z M21.84375,18.9375 C21.046875,18.9375 19.9375,18.296875 19.9375,16.765625 C19.9375,15.75 20.46875,15.203125 21.46875,14.71875 C22.078125,14.390625 23,13.921875 23.640625,13.625 L23.609375,18.203125 C23.09375,18.625 22.453125,18.9375 21.84375,18.9375 Z M33.296875,5.25 C34.390625,5.25 35.1875,4.375 35.1875,3.390625 C35.1875,2.296875 34.390625,1.46875 33.328125,1.46875 C32.3125,1.46875 31.421875,2.296875 31.421875,3.390625 C31.421875,4.375 32.3125,5.25 33.296875,5.25 Z M37.078125,20.734375 L37.078125,19.75 C35.3109375,19.5234375 35.1060243,19.3698785 35.094327,17.5674144 L35.09375,7.234375 C33.625,7.75 31.921875,8.125 30.203125,8.34375 L30.203125,9.28125 C31.7419181,9.52262931 31.9406399,9.58921671 31.9525151,11.2952317 L31.953125,17.375 C31.953125,19.390625 31.734375,19.515625 30,19.75 L30,20.734375 L37.078125,20.734375 Z M45.953125,20.734375 L45.953125,19.75 C43.7128906,19.5532227 43.5255737,19.4004364 43.5160542,17.7290411 L43.515625,12.1875 C44.0625,10.75 44.796875,10.203125 45.46875,10.203125 C45.984375,10.203125 46.328125,10.390625 46.78125,10.78125 C46.96875,10.96875 47.234375,11.078125 47.609375,10.90625 C48.3125,10.625 48.859375,9.890625 48.859375,9.015625 C48.859375,8.125 48.09375,7.265625 47,7.265625 C45.78125,7.265625 44.609375,8.640625 43.578125,10.359375 L43.515625,10.359375 L43.515625,7.234375 C41.953125,7.8125 40.375,8.15625 38.6875,8.375 L38.6875,9.28125 C40.1875,9.53125 40.375,9.65625 40.375,11.359375 L40.375,17.59375 C40.375,19.390625 40.15625,19.546875 38.421875,19.75 L38.421875,20.734375 L45.953125,20.734375 Z M59.421875,21.09375 C61.46875,20.453125 63.953125,20.09375 64.65625,19.96875 L64.65625,18.9375 L63.859375,18.90625 C62.734375,18.78125 62.578125,18.625 62.578125,17.09375 L62.578125,0 C61.265625,0.421875 59.09375,0.796875 57.328125,1.015625 L57.328125,1.984375 C59.25,2.171875 59.421875,2.265625 59.421875,3.96875 L59.421875,7.515625 C58.78125,7.359375 58.203125,7.265625 57.90625,7.265625 C53.625,7.265625 50.0625,10.5625 50.0625,14.625 C50.0625,18.9375 53.390625,21.09375 55.796875,21.09375 C56.15625,21.09375 56.765625,20.953125 57.59375,20.453125 L59.421875,19.328125 L59.421875,21.09375 Z M57.265625,18.9375 C55.734375,18.9375 53.625,17.375 53.625,13.828125 C53.625,9.46875 55.984375,8.609375 56.953125,8.609375 C57.90625,8.609375 58.84375,9.09375 59.421875,10.078125 L59.421875,18.203125 C58.734375,18.65625 58.03125,18.9375 57.265625,18.9375 Z M72.640625,21.09375 C75.796875,21.09375 79.1875,18.75 79.1875,13.953125 C79.1875,10.296875 76.5625,7.265625 72.703125,7.265625 L72.671875,7.265625 C69.6875,7.265625 65.9375,9.5625 65.9375,14.5 C65.9375,17.765625 68.28125,21.09375 72.640625,21.09375 Z M72.921875,19.90625 C70.84375,19.90625 69.5,17.125 69.5,13.46875 C69.5,10.140625 70.875,8.453125 72.28125,8.453125 L72.3125,8.453125 C74.453125,8.453125 75.609375,10.96875 75.609375,14.71875 C75.609375,18.84375 74.328125,19.90625 72.921875,19.90625 Z M87.84375,21.09375 C91,21.09375 94.390625,18.75 94.390625,13.953125 C94.390625,10.296875 91.765625,7.265625 87.90625,7.265625 L87.875,7.265625 C84.890625,7.265625 81.140625,9.5625 81.140625,14.5 C81.140625,17.765625 83.484375,21.09375 87.84375,21.09375 Z M88.125,19.90625 C86.046875,19.90625 84.703125,17.125 84.703125,13.46875 C84.703125,10.140625 86.078125,8.453125 87.484375,8.453125 L87.515625,8.453125 C89.65625,8.453125 90.8125,10.96875 90.8125,14.71875 C90.8125,18.84375 89.53125,19.90625 88.125,19.90625 Z" id="logo" fill="#000000" fill-rule="nonzero"></path>
    </g>
</svg>